<svg width="240" height="240" fill="none" xmlns="http://www.w3.org/2000/svg"><path opacity=".3" d="M240 60c0-33.137-26.863-60-60-60s-60 26.863-60 60v60h60c33.137 0 60-26.863 60-60z" fill="url(#paint0_linear)"/><path opacity=".2" d="M240 180c0 33.137-26.863 60-60 60s-60-26.863-60-60 26.863-60 60-60 60 26.863 60 60z" fill="url(#paint1_linear)"/><path opacity=".1" d="M120 180c0 33.137-26.863 60-60 60S0 213.137 0 180v-60h60c33.137 0 60 26.863 60 60z" fill="#2A6DE6"/><defs><linearGradient id="paint0_linear" x1="235.556" y1="0" x2="91.316" y2="40.858" gradientUnits="userSpaceOnUse"><stop stop-color="#CBE7FB"/><stop offset="1" stop-color="#A3D4F7"/></linearGradient><linearGradient id="paint1_linear" x1="235.556" y1="240" x2="91.316" y2="199.142" gradientUnits="userSpaceOnUse"><stop stop-color="#CBE7FB"/><stop offset="1" stop-color="#A3D4F7"/></linearGradient></defs></svg>