<svg width="240" height="241" fill="none" xmlns="http://www.w3.org/2000/svg"><path opacity=".3" d="M120 60.554c0-33.137 26.863-60 60-60s60 26.863 60 60v60h-60c-33.137 0-60-26.863-60-60z" fill="url(#paint0_linear)"/><path opacity=".3" d="M240 180.554c0 33.137-26.863 60-60 60s-60-26.863-60-60 26.863-60 60-60 60 26.863 60 60z" fill="url(#paint1_linear)"/><path opacity=".1" d="M0 180.554c0 33.137 26.863 60 60 60s60-26.863 60-60v-60H60c-33.137 0-60 26.863-60 60z" fill="#2A6DE6"/><defs><linearGradient id="paint0_linear" x1="144.15" y1="-6.719" x2="261.044" y2="34.185" gradientUnits="userSpaceOnUse"><stop stop-color="#A1C4FD"/><stop offset="1" stop-color="#C2E9FB"/></linearGradient><linearGradient id="paint1_linear" x1="110.85" y1="240.554" x2="258.027" y2="145.27" gradientUnits="userSpaceOnUse"><stop stop-color="#CCDEFF"/><stop offset="1" stop-color="#9DC0FF"/></linearGradient></defs></svg>