<svg xmlns="http://www.w3.org/2000/svg" viewBox="0 0 380.36 96.79"><style>.st0{fill:#38a3ed}.st0,.st1,.st2{fill-rule:evenodd;clip-rule:evenodd}.st1{fill:#38a2ee}.st2{fill:#37a2ed}</style><g id="Слой_1"><path class="st0" d="M249.01 35.57c0 .73 1.36.36 1.36 1.63v19.96c0 1.35-1.36.79-1.36 1.63 0 .31.09.41.41.41h7.74c0-1.23-.04-.62-.84-1.19-.51-.36-.53-.69-.52-1.52l.12-12.48c1.21 1.85 5.27 9.48 6.36 11.43l1.59 2.89c.27.47.29.75.76.87.14-.59.72-1.4 1.04-1.94.4-.67.71-1.23 1.1-1.88l6.82-11.52v11.81c0 1.83.21 2.35-1.36 2.72v.81h8.69c0-1.68-1.36-.46-1.36-2.04V37.2c0-1.51 1.36-.46 1.36-2.04h-10.05v.81c.75.18.95.24.95 1.09 0 1.12-2.63 5.2-3.3 6.47-.59 1.1-1.17 2-1.77 3.12l-1.33 2.33c-.27.48-.16.57-.66.7-.15-.65-5.02-9.31-5.84-10.73-.51-.89-1.02-2.16-.08-2.79.63-.42.48.01.48-1.01h-9.91c-.31.01-.4.11-.4.42z"/><path class="st1" d="M129.91 37.61l4.75 9.91h-9.23c1.15-2.17 2.79-6.24 3.94-8.56.21-.42.49-.79.54-1.35zm-3.67-5.84c0 1.08-.19 1.29-.54 2.04-.06.14-.09.23-.17.38l-6.37 13.32c-.53 1.15-4.43 9.52-5.04 10.17-1.05 1.13-1.47.09-1.47 1.52h9.78v-.81c-.39-.09-.56-.12-.88-.34-1.58-1.06 1.38-4.35 1.83-6.31h13.17c.44.82 2.44 4.6 2.44 5.43 0 .87-.65 1.06-1.36 1.22v.81h10.86c0-1.44-.58-.48-1.57-1.55-.75-.82-1.85-3.27-2.39-4.4l-4.14-8.35c-1.25-2.49-2.37-4.88-3.62-7.38-.64-1.28-1.23-2.47-1.86-3.71-1.75-3.45.68-2.52.68-3.53 0-.31-.09-.41-.41-.41H125c0 .98-.15.6.48 1.02.29.18.76.51.76.88zm189.99 13.17h-8.42v-5.3h8.96c2.18 0 3.8.37 3.8 2.58 0 2.41-1.97 2.72-4.34 2.72zm-15.62-8.96c.91.21 1.36.51 1.36 1.63v19.15c0 1.06-.5 1.43-1.36 1.63v.81h8.28c.31 0 .41-.09.41-.41 0-.87-1.49-.03-1.49-2.31v-7.06h5.3c.42 0 1.08 1.19 1.55 1.84.77 1.07 4.15 5.3 4.15 6.3 0 1.01-1.09.08-1.09 1.63h10.32v-.81c-1.91-.16-3.36-2.68-4.44-4.11l-1.84-2.5c-.62-.83-1.31-1.66-1.86-2.48.4-.19.83-.27 1.25-.38 2.1-.52 3.95-1.67 4.86-3.69.42-.93.54-2.06.54-3.26 0-4.65-3.34-6.79-8.01-6.79h-17.93v.81z"/><path class="st2" d="M330.76 35.57c0 .72.79.37 1.17 1.01.91 1.51-1.08 14.69 1.37 19.14.66 1.19 1.87 2.09 3.06 2.65 4.35 2.07 14.41 2.09 17.94-1.3 1.25-1.19 1.98-2.91 2.13-4.8.27-3.43.15-9.53.15-13.43 0-.69-.11-1.72.13-2.18.49-.94 1.23.03 1.23-1.49h-8.15c0 1.02.08.72.72 1.05.28.15.64.53.64.85V49.7c0 3.07-1.28 4.48-3.88 5.08-2.49.58-5.09.45-7.3-.82-1.28-.74-1.85-2.16-1.85-4.12V37.2c0-1.57 1.36-.36 1.36-2.04h-8.69v.41z"/><path d="M230.4 42.36c.17.73 1.37 2.88 1.77 3.67l.91 1.8c.29.64.79 1.12.85 1.86h-7.2c.13-.56 1.53-3.26 1.97-4.14.14-.28.09-.13.24-.44.33-.68.97-2.39 1.46-2.75zm-4.48-6.65c0 .88 1.09-.06 1.09 1.77 0 1.3-7.81 16.2-9.12 18.99-.42.89-.87 1.82-2.15 1.93v.81h8.96c0-1.1-.17-.66-.83-1.07-1.77-1.08.66-3.11 1.1-5.04h10.86c.35.67.66 1.27 1.06 1.93.92 1.52 1.56 2.89-.52 3.37v.81h9.51c.31 0 .41-.09.41-.41 0-.87-.87.13-2.12-1.96l-3.63-6.83c-.83-1.66-6.34-11.32-6.34-12.54 0-.61.02-.88.52-1.24.61-.43.56-.05.56-1.07h-9.37v.55z" fill-rule="evenodd" clip-rule="evenodd" fill="#37a3ef"/><path class="st0" d="M151.23 35.57c0 .84 1.36.28 1.36 1.63v19.96c0 1.57-1.36.36-1.36 2.04h20.23c.68 0 1.22.09 1.52.51.58.8-.06.85 1.19.85v-6.79c0-.34-.15-.46-.52-.41-.76.1-.34 1.36-1.65 1.36h-13.44V37.2c0-1.51 1.36-.46 1.36-2.04h-8.69v.41zm26.34.41c.91.21 1.36.51 1.36 1.63v19.15c0 1.06-.5 1.43-1.36 1.63v.81h20.37c2.14 0 .8 1.36 2.44 1.36v-7.2c-1.68 0-.29 1.36-2.31 1.36h-13.31V37.88c0-2.13 1.13-1.4 1.43-2.19.05-.14.11-.52-.34-.52h-8.28v.81z"/><path class="st2" d="M205.14 36.93v20.23c0 1.35-1.36.79-1.36 1.63 0 .31.09.41.41.41h8.28c0-.98-.07-.71-.7-1.07-.27-.15-.66-.46-.66-.84V37.2c0-1.57 1.36-.36 1.36-2.04h-8.28c-.49 0-.61.53.04.91.36.22.91.36.91.86z"/><path class="st0" d="M287.17 56.08c0 2.13 1.64 3.67 3.12 3.67 1.17 0 2.2-.07 3.09-1.12 2.38-2.8-.15-5.94-2.14-5.94h-.95c-1.65-.01-3.12 1.66-3.12 3.39z"/><path class="st1" d="M75.59 76.92zM51.97 12.31c20.23 0 36.62 16.4 36.62 36.62 0 6.65-1.77 12.88-4.87 18.26l-15.3-16.54-16.45 17.77-16.45-17.77-15.3 16.54.01.02a36.488 36.488 0 01-4.88-18.27c0-20.23 16.39-36.63 36.62-36.63z"/><path class="st1" d="M35.52 56.67l16.45 17.77 16.45-17.77 13 14.04c-.32.43-.65.85-.99 1.27L68.42 59.01 51.97 76.78 35.52 59.01 23.51 71.98c-.34-.42-.67-.84-.99-1.27l13-14.04zm47.53 11.64l-14.63-15.8-16.45 17.77-16.45-17.77-14.63 15.8c.29.46.59.92.9 1.37l13.73-14.84 16.45 17.77 16.45-17.77 13.73 14.84c.31-.45.61-.9.9-1.37zm-3.42 4.63l-11.21-12.1-16.45 17.77-16.45-17.77-11.2 12.1c.35.4.71.79 1.07 1.18l10.14-10.95 16.45 17.77 16.45-17.77 10.14 10.95c.35-.38.71-.77 1.06-1.18zm-1.95 2.07L68.42 65 51.97 82.77 35.52 65l-9.26 10.01c.38.37.76.74 1.15 1.09l8.11-8.76 16.45 17.77 16.45-17.77 8.11 8.76c.39-.35.78-.72 1.15-1.09z"/></g></svg>