<svg width="24" height="27" fill="none" xmlns="http://www.w3.org/2000/svg"><circle cx="12" cy="13" r="12" fill="#2A6DE6"/><path d="M11.35 16.318h1.534v-.077c.025-1.585.434-2.275 1.56-2.978 1.124-.684 1.789-1.668 1.789-3.081 0-1.995-1.457-3.452-3.707-3.452-2.072 0-3.714 1.279-3.81 3.452h1.61c.097-1.509 1.151-2.122 2.2-2.122 1.201 0 2.173.792 2.173 2.045 0 1.016-.582 1.745-1.33 2.199-1.252.76-2 1.502-2.02 3.937v.077zm.818 3.784c.632 0 1.15-.518 1.15-1.15 0-.633-.518-1.15-1.15-1.15-.633 0-1.151.517-1.151 1.15 0 .632.518 1.15 1.15 1.15z" fill="#FAFDFF"/></svg>