<svg width="64" height="64" fill="none" xmlns="http://www.w3.org/2000/svg"><path d="M63 32C63 14.88 49.12 1 32 1 14.88 1 1 14.88 1 32c0 17.12 13.88 31 31 31h31V32z" fill="#FAFDFF" stroke="#E6E6E6" stroke-width="2"/><path d="M32 16.333A16.667 16.667 0 1048.667 33 16.685 16.685 0 0032 16.333zm0 30A13.333 13.333 0 1145.334 33 13.348 13.348 0 0132 46.333zm0-14.167a1.666 1.666 0 00-1.666 1.667v5a1.666 1.666 0 103.333 0v-5A1.667 1.667 0 0032 32.166zm0-6.666a2.084 2.084 0 100 4.167 2.084 2.084 0 000-4.167z" fill="#2A6DE6"/></svg>