<svg width="64" height="64" fill="none" xmlns="http://www.w3.org/2000/svg"><path d="M63 32C63 14.88 49.12 1 32 1 14.88 1 1 14.88 1 32c0 17.12 13.88 31 31 31h31V32z" fill="#FAFDFF" stroke="#E6E6E6" stroke-width="2"/><path d="M46.334 25.333H36.98l1.872-5.612a3.345 3.345 0 00-.458-3.003 3.348 3.348 0 00-2.707-1.385H33c-.495 0-.963.22-1.282.6l-7.833 9.4h-4.218a3.337 3.337 0 00-3.334 3.333v15A3.337 3.337 0 0019.668 47h22.178a3.35 3.35 0 003.122-2.164l4.595-12.251c.07-.187.105-.385.105-.585v-3.334a3.337 3.337 0 00-3.334-3.333zm-26.667 3.333H23v15h-3.333v-15zm26.666 3.032l-4.488 11.968H26.334V27.603l7.446-8.937h1.91l-2.603 7.805a1.66 1.66 0 00.228 1.502c.314.437.817.693 1.352.693h11.666v3.032z" fill="#2A6DE6"/></svg>